<svg id="visual" viewBox="0 0 960 300" width="960" height="300" xmlns="http://www.w3.org/2000/svg" xmlns:xlink="http://www.w3.org/1999/xlink" version="1.1"><rect x="0" y="0" width="960" height="300" fill="#202731"></rect><path d="M0 113L22.8 111C45.7 109 91.3 105 137 100.5C182.7 96 228.3 91 274 93.7C319.7 96.3 365.3 106.7 411.2 107.5C457 108.3 503 99.7 548.8 100.2C594.7 100.7 640.3 110.3 686 110.2C731.7 110 777.3 100 823 97.8C868.7 95.7 914.3 101.3 937.2 104.2L960 107L960 0L937.2 0C914.3 0 868.7 0 823 0C777.3 0 731.7 0 686 0C640.3 0 594.7 0 548.8 0C503 0 457 0 411.2 0C365.3 0 319.7 0 274 0C228.3 0 182.7 0 137 0C91.3 0 45.7 0 22.8 0L0 0Z" fill="#fa7268"></path><path d="M0 61L22.8 63C45.7 65 91.3 69 137 74.7C182.7 80.3 228.3 87.7 274 86.8C319.7 86 365.3 77 411.2 71.8C457 66.7 503 65.3 548.8 67C594.7 68.7 640.3 73.3 686 72.5C731.7 71.7 777.3 65.3 823 62.5C868.7 59.7 914.3 60.3 937.2 60.7L960 61L960 0L937.2 0C914.3 0 868.7 0 823 0C777.3 0 731.7 0 686 0C640.3 0 594.7 0 548.8 0C503 0 457 0 411.2 0C365.3 0 319.7 0 274 0C228.3 0 182.7 0 137 0C91.3 0 45.7 0 22.8 0L0 0Z" fill="#ef5f67"></path><path d="M0 66L22.8 68.3C45.7 70.7 91.3 75.3 137 75C182.7 74.7 228.3 69.3 274 68C319.7 66.7 365.3 69.3 411.2 71.8C457 74.3 503 76.7 548.8 76.8C594.7 77 640.3 75 686 74.3C731.7 73.7 777.3 74.3 823 74.8C868.7 75.3 914.3 75.7 937.2 75.8L960 76L960 0L937.2 0C914.3 0 868.7 0 823 0C777.3 0 731.7 0 686 0C640.3 0 594.7 0 548.8 0C503 0 457 0 411.2 0C365.3 0 319.7 0 274 0C228.3 0 182.7 0 137 0C91.3 0 45.7 0 22.8 0L0 0Z" fill="#e34c67"></path><path d="M0 54L22.8 49.5C45.7 45 91.3 36 137 33.2C182.7 30.3 228.3 33.7 274 38.5C319.7 43.3 365.3 49.7 411.2 49.7C457 49.7 503 43.3 548.8 39.5C594.7 35.7 640.3 34.3 686 34.7C731.7 35 777.3 37 823 36.7C868.7 36.3 914.3 33.7 937.2 32.3L960 31L960 0L937.2 0C914.3 0 868.7 0 823 0C777.3 0 731.7 0 686 0C640.3 0 594.7 0 548.8 0C503 0 457 0 411.2 0C365.3 0 319.7 0 274 0C228.3 0 182.7 0 137 0C91.3 0 45.7 0 22.8 0L0 0Z" fill="#d53867"></path><path d="M0 31L22.8 28.5C45.7 26 91.3 21 137 17.8C182.7 14.7 228.3 13.3 274 14C319.7 14.7 365.3 17.3 411.2 17.3C457 17.3 503 14.7 548.8 14.5C594.7 14.3 640.3 16.7 686 19.7C731.7 22.7 777.3 26.3 823 25.3C868.7 24.3 914.3 18.7 937.2 15.8L960 13L960 0L937.2 0C914.3 0 868.7 0 823 0C777.3 0 731.7 0 686 0C640.3 0 594.7 0 548.8 0C503 0 457 0 411.2 0C365.3 0 319.7 0 274 0C228.3 0 182.7 0 137 0C91.3 0 45.7 0 22.8 0L0 0Z" fill="#c62368"></path></svg>