<svg id="visual" viewBox="0 0 960 300" width="960" height="300" xmlns="http://www.w3.org/2000/svg" xmlns:xlink="http://www.w3.org/1999/xlink" version="1.1"><rect x="0" y="0" width="960" height="300" fill="#202731"></rect><path d="M0 121L16 116.8C32 112.7 64 104.3 96 104.3C128 104.3 160 112.7 192 114.5C224 116.3 256 111.7 288 110.3C320 109 352 111 384 112C416 113 448 113 480 110.8C512 108.7 544 104.3 576 99.2C608 94 640 88 672 88.7C704 89.3 736 96.7 768 99.5C800 102.3 832 100.7 864 98.7C896 96.7 928 94.3 944 93.2L960 92L960 0L944 0C928 0 896 0 864 0C832 0 800 0 768 0C736 0 704 0 672 0C640 0 608 0 576 0C544 0 512 0 480 0C448 0 416 0 384 0C352 0 320 0 288 0C256 0 224 0 192 0C160 0 128 0 96 0C64 0 32 0 16 0L0 0Z" fill="#782246"></path><path d="M0 70L16 73.2C32 76.3 64 82.7 96 87.3C128 92 160 95 192 91.2C224 87.3 256 76.7 288 73C320 69.3 352 72.7 384 75.3C416 78 448 80 480 83.8C512 87.7 544 93.3 576 90.7C608 88 640 77 672 75C704 73 736 80 768 83.8C800 87.7 832 88.3 864 88.5C896 88.7 928 88.3 944 88.2L960 88L960 0L944 0C928 0 896 0 864 0C832 0 800 0 768 0C736 0 704 0 672 0C640 0 608 0 576 0C544 0 512 0 480 0C448 0 416 0 384 0C352 0 320 0 288 0C256 0 224 0 192 0C160 0 128 0 96 0C64 0 32 0 16 0L0 0Z" fill="#982151"></path><path d="M0 53L16 57C32 61 64 69 96 68.2C128 67.3 160 57.7 192 56.7C224 55.7 256 63.3 288 66.7C320 70 352 69 384 69.3C416 69.7 448 71.3 480 70C512 68.7 544 64.3 576 64C608 63.7 640 67.3 672 65.7C704 64 736 57 768 57.2C800 57.3 832 64.7 864 68.7C896 72.7 928 73.3 944 73.7L960 74L960 0L944 0C928 0 896 0 864 0C832 0 800 0 768 0C736 0 704 0 672 0C640 0 608 0 576 0C544 0 512 0 480 0C448 0 416 0 384 0C352 0 320 0 288 0C256 0 224 0 192 0C160 0 128 0 96 0C64 0 32 0 16 0L0 0Z" fill="#ba1d5a"></path><path d="M0 37L16 39.5C32 42 64 47 96 48.3C128 49.7 160 47.3 192 47.3C224 47.3 256 49.7 288 50.2C320 50.7 352 49.3 384 46.2C416 43 448 38 480 38.8C512 39.7 544 46.3 576 49.8C608 53.3 640 53.7 672 52.7C704 51.7 736 49.3 768 47.8C800 46.3 832 45.7 864 43C896 40.3 928 35.7 944 33.3L960 31L960 0L944 0C928 0 896 0 864 0C832 0 800 0 768 0C736 0 704 0 672 0C640 0 608 0 576 0C544 0 512 0 480 0C448 0 416 0 384 0C352 0 320 0 288 0C256 0 224 0 192 0C160 0 128 0 96 0C64 0 32 0 16 0L0 0Z" fill="#dc1461"></path><path d="M0 31L16 31C32 31 64 31 96 31.7C128 32.3 160 33.7 192 33.3C224 33 256 31 288 28.2C320 25.3 352 21.7 384 21.2C416 20.7 448 23.3 480 24.3C512 25.3 544 24.7 576 26C608 27.3 640 30.7 672 32.2C704 33.7 736 33.3 768 32.8C800 32.3 832 31.7 864 28.2C896 24.7 928 18.3 944 15.2L960 12L960 0L944 0C928 0 896 0 864 0C832 0 800 0 768 0C736 0 704 0 672 0C640 0 608 0 576 0C544 0 512 0 480 0C448 0 416 0 384 0C352 0 320 0 288 0C256 0 224 0 192 0C160 0 128 0 96 0C64 0 32 0 16 0L0 0Z" fill="#ff0066"></path></svg>